<svg t="1566546904872" class="icon" viewBox="0 0 1485 1024" version="1.1" xmlns="http://www.w3.org/2000/svg" p-id="926" width="200" height="200"><path d="M1128.896077 920.227463c-19.705026 0-39.382569-1.758887-58.208152-5.249177l-136.945809 81.266056v-134.582305c-71.537214-48.919032-117.240782-124.056468-117.240782-207.905888 0-147.691506 139.639103-267.405723 312.394743-267.405723 172.755639 0 312.422226 119.714217 312.422226 267.405723 0 147.609058-139.666586 266.471314-312.422226 266.471314z m0-495.428876c-151.264244 0-273.919099 102.180316-273.919099 228.930079 0 77.748283 46.583011 145.905137 116.361339 186.991628v89.098597l92.204131-54.168209a327.04297 327.04297 0 0 0 66.260555 7.008063c151.236762 0 273.919099-102.262764 273.919099-228.930079-0.906926-126.694798-123.534298-228.930079-274.826025-228.930079z m136.945808 209.692258h-273.919099a19.650061 19.650061 0 0 1-19.677543-19.237822c0-10.470872 8.959328-19.210339 19.705026-19.210339h273.891616c10.745698 0 19.705026 8.739468 19.705026 19.265304a19.650061 19.650061 0 0 1-19.705026 19.182857z m-234.53653 76.016878h195.153961c10.745698 0 19.705026 8.739468 19.705026 19.237822a19.595096 19.595096 0 0 1-19.705026 19.210339h-195.153961a19.622578 19.622578 0 0 1-19.65006-19.210339c0-10.498354 8.904363-19.237822 19.65006-19.237822z m-613.878892-105.780537c0 36.85417-30.615619 66.755242-68.376715 66.755242-37.761096 0-68.376715-29.901072-68.376715-66.755242 0-36.881653 30.615619-66.755242 68.376715-66.755242 37.761096 0 68.376715 29.873589 68.376715 66.755242z m548.964985-224.807689a387.44973 387.44973 0 0 0-108.55628 74.615266 1946.317911 1946.317911 0 0 1-618.193661-26.685607l-33.47381-6.925616 11.790037-31.302684c6.046173-16.077322 25.806164-69.476019 27.977289-75.247366 23.415177-62.742782 40.097117-103.774307 59.719695-145.080658l1.978748-3.490291c14.126058-21.353982 36.496896-36.277035 60.131934-40.894113 41.168939-10.993041 83.492146-17.286557 126.145146-18.7981 111.964123 1.044339 229.397283 4.452182 366.233161 10.305976 61.615995-1.181752 115.317 40.646769 127.216967 97.920513 1.126787 4.232321 2.308539 8.464642 3.545256 12.806893 6.540859 23.112869 14.318436 47.050216 25.256511 78.600243l17.671314 50.293163c-19.292787 4.864421-37.980957 11.212902-55.982061 18.825582l-17.753762-50.595471a1469.769583 1469.769583 0 0 1-26.273368-81.650812c-1.291682-4.64456-2.583365-9.179189-4.149873-15.197879-6.513377-31.440097-35.287662-53.838418-70.218049-53.233801-138.100078-5.853794-254.901138-9.261637-364.666653-10.333459-37.651165 1.456578-75.054988 7.063029-113.283288 17.231592-9.344085 1.841334-17.588866 7.063029-23.140351 14.620745-18.358378 38.805435-34.298288 78.215487-56.806539 138.457351l-16.214736 43.697338a1886.350872 1886.350872 0 0 0 681.046373 2.061195z m26.135955-210.764078a93.578262 93.578262 0 0 0-67.05755-60.846482c-32.264575-8.65702-60.956412-14.565779-120.621142-25.558821-28.417011-5.27666-36.634309-6.788203-50.073302-9.39905a850.339205 850.339205 0 0 0-243.770685 0.109931h-0.027482l-17.42397 2.528399-1.676439-2.171126-22.123495 3.187982-9.893737 1.429096c-21.051674 3.023086-34.628079 5.084281-51.227571 7.860024-71.454767 5.578968-131.779079 54.058279-151.126831 121.445621a1534.601043 1534.601043 0 0 1-59.747178 158.684546c-8.162333 20.529504-30.478206 42.515586-54.91024 42.405656-36.277035-3.105534-52.931492 10.580802-70.108119 53.343732l45.373777 16.352148-0.989374 23.222799a3423.782623 3423.782623 0 0 0-3.078052 101.355838c-0.412239 33.391362-0.549652 66.782724-0.439721 100.174087 0 22.260908 0.027483 32.072197 0.137413 44.274472 0.302309 33.803601 1.2642 60.983895 3.407843 89.75818 0.137413 12.14731 21.656291 24.047277 27.592532 34.628079a546.079312 546.079312 0 0 0 157.805104 0.082448c2.11616-6.925616 4.287286-16.407114 7.310372-31.385132l3.27043-16.517044c3.90253-19.485165 6.540859-31.412615 9.783807-42.543069l6.046172-11.927449h442.634797c2.143643 19.759991 5.853794 29.873589 10.993041 48.616724h-407.841822c-1.071821 4.891903-2.198608 10.415906-3.49029 16.9018l-3.297913 16.599492c-11.130454 55.130101-14.428366 65.79335-37.183961 73.845753l-4.974351 1.291682a606.650968 606.650968 0 0 1-203.756015 0l-11.515211-1.978747-7.008063-9.069259c-17.42397-22.508251-38.393196-49.853441-38.613057-76.126809a1325.348507 1325.348507 0 0 1-3.49029-91.681962c-0.10993-12.422136-0.137413-22.370838-0.137413-44.769159 0-56.311853 0.054965-75.549674 0.439721-101.026047 0.357274-24.844273 1.016856-49.413719 2.171126-79.672065l-45.62112-14.648227-3.875047-17.259074a92.176649 92.176649 0 0 1 0-40.454391l1.181752-4.039943c25.283994-65.436077 60.764034-98.497647 123.122059-95.502044a23.607556 23.607556 0 0 0 4.314769-6.183585 1490.216639 1490.216639 0 0 0 57.713465-153.050614c26.053507-90.280349 107.18215-155.194256 200.265724-162.394698a1586.405748 1586.405748 0 0 1 50.293163-7.805059l9.893737-1.429096a2083.895819 2083.895819 0 0 0 38.915365-5.743864l17.643831-2.803225 2.061195 2.63833a912.06513 912.06513 0 0 1 245.776915 2.610847c13.631371 2.665812 21.491395 4.12239 50.210714 9.426533 61.286204 11.267867 91.077345 17.42397 124.825981 26.520711 50.815332 12.477102 91.572032 49.496167 107.951663 98.085409a5579.930204 5579.930204 0 0 0 74.697713 193.614934c-20.859295 0.412239-41.278869 2.418469-61.176273 5.90876a5627.062868 5627.062868 0 0 1-69.558467-180.917972zM50.478754 457.915123l-0.274826 0.989374h0.027482l20.804331 7.667646 0.824478-2.198608 0.384756-1.813852-21.766221-4.64456z" p-id="927"></path></svg>